<svg width="106" height="129" viewBox="0 0 106 129" fill="none" xmlns="http://www.w3.org/2000/svg">
<g clip-path="url(#clip0_2_1188)">
<path d="M106 87.865C106 100.466 102.25 109.922 95.9538 115.533C93.9708 117.302 82.073 125.589 79.624 126.572C71.3489 129.895 70.2853 121.721 58.5655 115.013C32.3674 100.021 11.1309 63.557 11.1309 33.57C11.1309 22.1322 3.49564 20.4352 8.77086 14.7016C10.1437 13.2104 22.3932 4.7843 24.0457 3.72159C32.6936 -1.8314 44.9601 -1.36515 58.5655 6.42248C84.7636 21.4139 106 57.878 106 87.865Z" fill="url(#paint0_linear_2_1188)"/>
<path d="M94.8649 95.43C94.8649 125.417 73.6284 137.573 47.4303 122.578C21.2322 107.582 0 71.1178 0 41.1308C0 11.1438 21.2364 -1.00811 47.4345 13.9833C73.6284 28.9789 94.8649 65.443 94.8649 95.43Z" fill="url(#paint1_linear_2_1188)"/>
<path d="M76.9509 119.128C93.3333 109.751 93.3338 79.3473 76.9519 51.2195C60.5701 23.0917 34.0094 7.89102 17.627 17.2678C1.24456 26.6446 1.2441 57.0481 17.6259 85.1759C34.0078 113.304 60.5685 128.504 76.9509 119.128Z" stroke="#84E4A4" stroke-width="0.6873" stroke-miterlimit="10"/>
</g>
<defs>
<linearGradient id="paint0_linear_2_1188" x1="166.254" y1="28.7716" x2="55.8176" y2="64.1084" gradientUnits="userSpaceOnUse">
<stop offset="0.0873" stop-color="#84E4A4"/>
<stop offset="0.9709" stop-color="#3C53D7"/>
</linearGradient>
<linearGradient id="paint1_linear_2_1188" x1="45.5899" y1="22.1576" x2="3.18783" y2="106.806" gradientUnits="userSpaceOnUse">
<stop offset="0.0873" stop-color="#84E4A4"/>
<stop offset="0.9709" stop-color="#3C53D7"/>
</linearGradient>
<clipPath id="clip0_2_1188">
<rect width="106" height="129" fill="white"/>
</clipPath>
</defs>
</svg>
