<svg width="47" height="38" viewBox="0 0 47 38" fill="none" xmlns="http://www.w3.org/2000/svg">
<path d="M12.1151 21.9315C12.1518 25.0037 14.6313 27.3625 17.6558 27.3319C20.6552 26.9413 22.7697 24.0804 22.3785 21.033C22.3417 17.9608 19.8497 15.422 16.8252 15.4526C13.8384 16.0232 11.7239 18.8841 12.1151 21.9315ZM18.6705 21.4731C18.7586 22.733 18.1254 23.8625 17.2395 23.9245C16.3537 23.9864 15.5695 22.956 15.4814 21.6961C15.3932 20.4362 16.2036 19.2943 17.0895 19.2324C17.9753 19.1704 18.5824 20.2132 18.6705 21.4731Z" fill="#111111"/>
<path d="M28.3561 14.8265C25.3567 15.2171 23.2422 18.078 23.6334 21.1254C23.6702 24.1976 26.1496 26.5564 29.1867 26.7057C32.1861 26.3151 34.3006 23.4543 33.9094 20.4068C33.8726 17.3347 31.3806 14.7959 28.3561 14.8265ZM28.9224 22.926C28.0366 22.9879 27.2524 21.9576 27.1643 20.6976C27.0762 19.4377 27.7093 18.3082 28.5952 18.2463C29.4811 18.1844 30.2653 19.2147 30.3534 20.4746C30.4415 21.7346 29.8083 22.864 28.9224 22.926Z" fill="#111111"/>
<path d="M41.0101 7.4299C40.8203 7.2623 40.8077 7.08231 40.8077 7.08231C37.5315 3.51318 33.0905 1.11069 28.2313 0.365273C27.3203 0.0672428 26.3076 0.86153 26.1933 1.77386C26.0791 2.68619 26.6861 3.72895 27.5846 3.84699C27.5846 3.84699 27.5846 3.84699 27.7618 3.8346C31.7225 4.46198 35.417 6.37406 38.1114 9.26041C40.8048 14.679 42.6376 20.5195 43.0655 26.6391C40.7487 29.1524 37.85 30.9829 34.5214 31.7582L34.4711 31.0383C34.4711 31.0383 34.4711 31.0383 34.4585 30.8583C36.5217 29.8097 38.5722 28.5811 40.2307 26.8373C40.9016 26.2478 40.9907 24.9755 40.4088 24.2927C39.827 23.6099 38.5742 23.5166 37.9032 24.1062C34.0548 27.6309 29.03 29.6101 23.7022 29.8018C18.5768 30.341 13.3255 29.0804 9.02395 26.1256C8.2775 25.6352 7.03728 25.7219 6.56869 26.659C6.1001 27.5961 6.17562 28.6761 7.09924 29.1541C8.97167 30.4701 11.1859 31.5813 13.3749 32.3326L13.4378 33.2325C10.0337 32.928 6.90852 31.5187 4.26447 29.3523C3.83654 23.2327 4.66142 17.2064 6.75168 11.4533C8.84098 8.23244 12.246 6.00478 16.0809 4.83228C16.9416 4.41036 17.4102 3.47325 17.1701 2.5857C16.9174 1.51816 15.9938 1.04014 14.9433 1.29446C10.2351 2.7089 6.15917 5.52607 3.42412 9.69643L3.44929 10.0564C0.409256 17.5037 0.508005 24.0081 0.594168 30.3324C0.631926 30.8724 0.846857 31.4 1.22638 31.7352C5.03415 35.2671 9.96887 37.0925 15.1447 37.2732C15.6762 37.236 16.0179 37.0312 16.3471 36.6465C16.6763 36.2617 16.8283 35.8894 16.7905 35.3494L16.6647 33.5495C21.3467 34.3073 26.3076 33.9604 30.8386 32.5584L30.9644 34.3583C31.0022 34.8982 31.2045 35.2458 31.584 35.581C31.9636 35.9162 32.3305 36.0714 32.862 36.0342C37.9749 35.315 42.7847 32.8082 46.0639 28.7807C46.393 28.3959 46.5325 27.8436 46.4947 27.3036C45.6873 20.8488 44.8798 14.394 41.0101 7.4299Z" fill="#111111"/>
<path d="M35.488 9.9866C35.9566 9.04949 35.5267 7.99434 34.6157 7.69631C30.592 6.16899 26.2643 5.3864 21.8476 5.87612C17.5828 5.99347 13.229 7.38313 9.45705 9.45557C8.77353 9.8651 8.4947 10.9698 8.91198 11.845C9.50643 12.7077 10.5821 12.8134 11.4428 12.3915C14.6958 10.5362 18.3661 9.55606 22.0867 9.29589C25.8074 9.03572 29.7555 9.48311 33.2351 10.8676C33.4249 11.0352 33.7792 11.0104 34.1336 10.9857C34.6651 10.9485 35.1714 10.5513 35.488 9.9866Z" fill="#111111"/>
</svg>
