<svg width="24" height="18" viewBox="0 0 24 18" fill="none" xmlns="http://www.w3.org/2000/svg">
<g clip-path="url(#clip0_1_19)">
<path d="M6.18314 10.273C6.09223 11.8184 7.27404 13.0912 8.8195 13.1821C10.365 13.0912 11.5468 11.7275 11.4559 10.1821C11.5468 8.63661 10.365 7.27298 8.8195 7.18207C7.27404 7.36389 6.09223 8.72752 6.18314 10.273ZM9.54677 10.273C9.54677 10.9093 9.18314 11.4548 8.72859 11.4548C8.27404 11.4548 7.91041 10.9093 7.91041 10.273C7.91041 9.63661 8.36495 9.09116 8.8195 9.09116C9.27404 9.09116 9.54677 9.63661 9.54677 10.273Z" fill="white"/>
<path d="M14.7295 7.27274C13.184 7.36364 12.0022 8.72728 12.0931 10.2727C12.0022 11.8182 13.184 13.0909 14.7295 13.2727C16.2749 13.1818 17.4567 11.8182 17.3658 10.2727C17.4567 8.72728 16.2749 7.36364 14.7295 7.27274ZM14.7295 11.3636C14.2749 11.3636 13.9113 10.8182 13.9113 10.1818C13.9113 9.54546 14.2749 9.00001 14.7295 9.00001C15.184 9.00001 15.5477 9.54546 15.5477 10.1818C15.5477 10.8182 15.184 11.3636 14.7295 11.3636Z" fill="white"/>
<path d="M21.4545 3.99972C21.3636 3.90881 21.3636 3.8179 21.3636 3.8179C19.8182 1.90881 17.6364 0.545173 15.1818 -0.000281103C14.7273 -0.182099 14.1818 0.181537 14.0909 0.636082C14 1.09063 14.2727 1.63608 14.7273 1.72699C14.7273 1.72699 14.7273 1.72699 14.8182 1.72699C16.8182 2.18154 18.6364 3.27245 19.9091 4.8179C21.0909 7.63608 21.8182 10.6361 21.8182 13.727C20.5455 14.9088 19 15.727 17.2727 15.9997V15.6361C17.2727 15.6361 17.2727 15.6361 17.2727 15.5452C18.3636 15.0906 19.4545 14.5452 20.3636 13.727C20.7273 13.4543 20.8182 12.8179 20.5455 12.4543C20.2727 12.0906 19.6364 11.9997 19.2727 12.2724C17.1818 13.9088 14.5455 14.727 11.8182 14.6361C9.18182 14.727 6.54545 13.9088 4.45455 12.2724C4.09091 11.9997 3.45455 11.9997 3.18182 12.4543C2.90909 12.9088 2.90909 13.4543 3.36364 13.727C4.27273 14.4543 5.36364 15.0906 6.45454 15.5452V15.9997C4.72727 15.727 3.18182 14.9088 1.90909 13.727C1.90909 10.6361 2.54545 7.63608 3.81818 4.8179C5 3.27245 6.81818 2.27245 8.81818 1.8179C9.27273 1.63608 9.54545 1.18154 9.45454 0.726992C9.36364 0.181537 8.90909 -0.0911902 8.36364 -0.000281103C5.90909 0.545173 3.72727 1.8179 2.18182 3.8179V3.90881V3.99972C0.363636 7.63608 0.181818 10.9088 0 14.0906C0 14.3634 0.0909091 14.6361 0.272727 14.8179C2.09091 16.727 4.54545 17.8179 7.18182 18.0906C7.45455 18.0906 7.63636 17.9997 7.81818 17.8179C8 17.6361 8.09091 17.4543 8.09091 17.1815V16.2724C10.4545 16.8179 13 16.8179 15.3636 16.2724V17.1815C15.3636 17.4543 15.4545 17.6361 15.6364 17.8179C15.8182 17.9997 16 18.0906 16.2727 18.0906C18.9091 17.9088 21.4545 16.8179 23.2727 14.9088C23.4545 14.727 23.5455 14.4543 23.5455 14.1815C23.3636 10.9088 23.1818 7.63608 21.4545 3.99972Z" fill="white"/>
<path d="M18.5444 5.09067C18.8171 4.63612 18.6353 4.09067 18.1807 3.90885C16.1807 2.99976 13.9989 2.4543 11.7262 2.54521C9.54436 2.4543 7.27163 2.99976 5.27163 3.90885C4.908 4.09067 4.72618 4.63612 4.908 5.09067C5.18073 5.54521 5.72618 5.63612 6.18073 5.4543C7.908 4.63612 9.81709 4.27248 11.7262 4.27248C13.6353 4.27248 15.6353 4.63612 17.3625 5.4543C17.4535 5.54521 17.6353 5.54521 17.8171 5.54521C18.0898 5.54521 18.3625 5.36339 18.5444 5.09067Z" fill="white"/>
</g>
<defs>
<clipPath id="clip0_1_19">
<rect width="23.6364" height="18" fill="white"/>
</clipPath>
</defs>
</svg>
