<svg width="16" height="20" viewBox="0 0 16 20" fill="none" xmlns="http://www.w3.org/2000/svg">
<path fill-rule="evenodd" clip-rule="evenodd" d="M3 2C2.73478 2 2.48043 2.10536 2.29289 2.29289C2.10536 2.48043 2 2.73478 2 3V17C2 17.2652 2.10536 17.5196 2.29289 17.7071C2.48043 17.8946 2.73478 18 3 18H13C13.2652 18 13.5196 17.8946 13.7071 17.7071C13.8946 17.5196 14 17.2652 14 17V7H11C10.4696 7 9.96086 6.78929 9.58579 6.41421C9.21071 6.03914 9 5.53043 9 5V2H3ZM11 3.41421L12.5858 5H11V3.41421ZM0.87868 0.87868C1.44129 0.31607 2.20435 0 3 0H10C10.2652 0 10.5196 0.105357 10.7071 0.292893L15.7071 5.29289C15.8946 5.48043 16 5.73478 16 6V17C16 17.7957 15.6839 18.5587 15.1213 19.1213C14.5587 19.6839 13.7957 20 13 20H3C2.20435 20 1.44129 19.6839 0.87868 19.1213C0.31607 18.5587 0 17.7957 0 17V3C0 2.20435 0.31607 1.44129 0.87868 0.87868ZM4 5C4 4.44772 4.44772 4 5 4H6C6.55228 4 7 4.44772 7 5C7 5.55228 6.55228 6 6 6H5C4.44772 6 4 5.55228 4 5ZM4 11C4 10.4477 4.44772 10 5 10H11C11.5523 10 12 10.4477 12 11C12 11.5523 11.5523 12 11 12H5C4.44772 12 4 11.5523 4 11ZM8 15C8 14.4477 8.44772 14 9 14H11C11.5523 14 12 14.4477 12 15C12 15.5523 11.5523 16 11 16H9C8.44772 16 8 15.5523 8 15Z" fill="white" fill-opacity="0.8"/>
</svg>
