<svg width="20" height="20" viewBox="0 0 20 20" fill="none" xmlns="http://www.w3.org/2000/svg">
<path d="M13.6074 7.81513C13.2079 8.01488 13.0082 8.41438 13.108 8.81389C13.7073 10.5118 12.9083 12.3095 11.2104 13.0086C9.51254 13.6079 7.71479 12.8089 7.01566 11.111C6.31653 9.41314 7.21541 7.71526 8.91329 7.01613C9.61241 6.71651 10.5113 6.71651 11.2104 7.01613C11.6099 7.21588 12.1093 6.91626 12.2092 6.51676C12.4089 6.11726 12.1093 5.61788 11.7098 5.518C9.21291 4.51925 6.41641 5.81763 5.41766 8.31451C4.71853 10.1123 5.21791 12.1098 6.51628 13.508C8.41391 15.4056 11.51 15.4056 13.4077 13.508C14.8059 12.1098 15.2054 10.1123 14.5063 8.31451C14.5063 7.91501 14.0069 7.71526 13.6074 7.81513Z" fill="white"/>
<path d="M15.6066 5.11851C16.0479 5.11851 16.4056 4.76079 16.4056 4.31951C16.4056 3.87823 16.0479 3.52051 15.6066 3.52051C15.1653 3.52051 14.8076 3.87823 14.8076 4.31951C14.8076 4.76079 15.1653 5.11851 15.6066 5.11851Z" fill="white"/>
<path d="M19.7004 4.3196C19.7004 2.12235 17.9026 0.324594 15.7054 0.224719C11.9101 -0.0749064 8.11486 -0.0749064 4.3196 0.224719C2.12235 0.224719 0.324594 2.02247 0.224719 4.21973C-0.0749064 8.01498 -0.0749064 11.8102 0.224719 15.6055C0.224719 17.8027 2.02247 19.6005 4.21973 19.7004C6.11735 19.9001 8.01498 20 10.0125 20C12.01 20 13.8077 19.9001 15.7054 19.7004C17.9026 19.7004 19.7004 17.9026 19.7004 15.7054C20 11.9101 20 8.11486 19.7004 4.3196ZM18.1024 15.7054C18.1024 17.0037 17.0037 18.1024 15.7054 18.1024H15.6055C11.9101 18.5019 8.11486 18.5019 4.3196 18.1024C3.02122 18.1024 1.9226 17.0037 1.9226 15.7054C1.9226 15.7054 1.9226 15.7054 1.9226 15.6055C1.62297 11.8102 1.62297 8.11486 1.9226 4.3196C1.9226 3.02122 3.02122 1.9226 4.3196 1.9226C4.3196 1.9226 4.3196 1.9226 4.41948 1.9226C6.3171 1.72285 8.11486 1.62297 10.0125 1.62297C11.9101 1.62297 13.8077 1.72285 15.7054 1.9226C17.0037 1.9226 18.1024 3.02122 18.1024 4.3196C18.1024 4.3196 18.1024 4.3196 18.1024 4.41948C18.402 8.11486 18.402 11.9101 18.1024 15.7054Z" fill="white"/>
</svg>
