<svg width="25" height="14" viewBox="0 0 25 14" fill="none" xmlns="http://www.w3.org/2000/svg">
<path d="M23.2859 12.057C22.943 11.7141 22.4287 10.0856 22.4287 6.99986C22.4287 3.91415 22.943 2.19986 23.2001 1.94272C23.543 2.28558 23.9716 4.08558 23.9716 6.99986C24.0573 10.0856 23.543 11.7141 23.2859 12.057Z" stroke="white" stroke-width="2" stroke-miterlimit="10" stroke-linecap="round" stroke-linejoin="round"/>
<path d="M17.7138 12.6573C16.171 12.6573 14.8853 10.0858 14.8853 7.00013C14.8853 4.85727 15.4853 2.88584 16.4281 1.94299C16.8567 1.51442 17.2853 1.34299 17.7138 1.34299C18.3995 1.34299 19.171 1.94299 19.6853 2.88584C20.2853 4.00013 20.6281 5.45727 20.6281 7.00013C20.6281 10.0858 19.2567 12.6573 17.7138 12.6573Z" stroke="white" stroke-width="2" stroke-miterlimit="10" stroke-linecap="round" stroke-linejoin="round"/>
<path d="M6.91429 13C3.65714 13 1 10.3429 1 7C1 5.37143 1.6 3.91429 2.71429 2.71429C3.82857 1.6 5.37143 1 6.91429 1C8.54286 1 10 1.6 11.1143 2.8C12.2286 3.91429 12.8286 5.45714 12.8286 7.08571C12.9143 10.3429 10.1714 13 6.91429 13Z" stroke="white" stroke-width="2" stroke-miterlimit="10" stroke-linecap="round" stroke-linejoin="round"/>
</svg>
