<svg width="22" height="22" viewBox="0 0 22 22" fill="none" xmlns="http://www.w3.org/2000/svg">
<path fill-rule="evenodd" clip-rule="evenodd" d="M0.938604 0.938604C1.61692 0.260292 2.56127 0 3.6 0H5.4C6.43873 0 7.38308 0.260292 8.0614 0.938604C8.73971 1.61692 9 2.56127 9 3.6V5.4C9 6.43873 8.73971 7.38308 8.0614 8.0614C7.38308 8.73971 6.43873 9 5.4 9H3.6C2.56127 9 1.61692 8.73971 0.938604 8.0614C0.260292 7.38308 0 6.43873 0 5.4V3.6C0 2.56127 0.260292 1.61692 0.938604 0.938604ZM2.2114 2.2114C1.98971 2.43308 1.8 2.83873 1.8 3.6V5.4C1.8 6.16127 1.98971 6.56692 2.2114 6.7886C2.43308 7.01029 2.83873 7.2 3.6 7.2H5.4C6.16127 7.2 6.56692 7.01029 6.7886 6.7886C7.01029 6.56692 7.2 6.16127 7.2 5.4V3.6C7.2 2.83873 7.01029 2.43308 6.7886 2.2114C6.56692 1.98971 6.16127 1.8 5.4 1.8H3.6C2.83873 1.8 2.43308 1.98971 2.2114 2.2114Z" fill="white"/>
<path fill-rule="evenodd" clip-rule="evenodd" d="M13.9386 0.938604C14.6169 0.260292 15.5613 0 16.6 0H18.4C19.4387 0 20.3831 0.260292 21.0614 0.938604C21.7397 1.61692 22 2.56127 22 3.6V5.4C22 6.43873 21.7397 7.38308 21.0614 8.0614C20.3831 8.73971 19.4387 9 18.4 9H16.6C15.5613 9 14.6169 8.73971 13.9386 8.0614C13.2603 7.38308 13 6.43873 13 5.4V3.6C13 2.56127 13.2603 1.61692 13.9386 0.938604ZM15.2114 2.2114C14.9897 2.43308 14.8 2.83873 14.8 3.6V5.4C14.8 6.16127 14.9897 6.56692 15.2114 6.7886C15.4331 7.01029 15.8387 7.2 16.6 7.2H18.4C19.1613 7.2 19.5669 7.01029 19.7886 6.7886C20.0103 6.56692 20.2 6.16127 20.2 5.4V3.6C20.2 2.83873 20.0103 2.43308 19.7886 2.2114C19.5669 1.98971 19.1613 1.8 18.4 1.8H16.6C15.8387 1.8 15.4331 1.98971 15.2114 2.2114Z" fill="white"/>
<path fill-rule="evenodd" clip-rule="evenodd" d="M0.938604 13.9386C1.61692 13.2603 2.56127 13 3.6 13H5.4C6.43873 13 7.38308 13.2603 8.0614 13.9386C8.73971 14.6169 9 15.5613 9 16.6V18.4C9 19.4387 8.73971 20.3831 8.0614 21.0614C7.38308 21.7397 6.43873 22 5.4 22H3.6C2.56127 22 1.61692 21.7397 0.938604 21.0614C0.260292 20.3831 0 19.4387 0 18.4V16.6C0 15.5613 0.260292 14.6169 0.938604 13.9386ZM2.2114 15.2114C1.98971 15.4331 1.8 15.8387 1.8 16.6V18.4C1.8 19.1613 1.98971 19.5669 2.2114 19.7886C2.43308 20.0103 2.83873 20.2 3.6 20.2H5.4C6.16127 20.2 6.56692 20.0103 6.7886 19.7886C7.01029 19.5669 7.2 19.1613 7.2 18.4V16.6C7.2 15.8387 7.01029 15.4331 6.7886 15.2114C6.56692 14.9897 6.16127 14.8 5.4 14.8H3.6C2.83873 14.8 2.43308 14.9897 2.2114 15.2114Z" fill="white"/>
<circle cx="17.5" cy="17.5" r="3.5" stroke="white" stroke-opacity="0.5" stroke-width="2"/>
</svg>
