<svg width="100" height="100" viewBox="0 0 100 100" fill="none" xmlns="http://www.w3.org/2000/svg">
<path d="M22.8703 21.6878L24.5105 20.3874L22.0092 17.2541L23.7007 15.9025C24.2337 15.4724 24.6335 14.9809 24.8898 14.428C25.1461 13.875 25.2383 13.2914 25.1768 12.6975C25.1051 12.1036 24.859 11.5302 24.4285 10.9875C23.9979 10.4448 23.4956 10.0762 22.9318 9.87141C22.368 9.67686 21.7837 9.6359 21.1789 9.75877C20.5741 9.88165 20.0103 10.1581 19.4669 10.5882L17.3347 12.2879L16.1353 13.2402L22.8703 21.6878ZM20.3588 12.0627C20.6151 11.8579 20.8918 11.7248 21.1789 11.6633C21.4762 11.6019 21.7529 11.6224 22.04 11.7248C22.3168 11.8271 22.573 12.0217 22.7883 12.2879C23.0138 12.5644 23.1369 12.8511 23.1779 13.148C23.2189 13.445 23.1676 13.7215 23.0446 13.9877C22.9216 14.2539 22.7268 14.4997 22.4705 14.6942L20.9431 15.9127L18.8314 13.2709L20.3588 12.0627ZM32.2296 10.1479C32.6192 9.90213 32.9575 9.6359 33.2137 9.31848C33.5828 8.8577 33.798 8.34572 33.8698 7.80303C33.9313 7.26034 33.8288 6.69717 33.5623 6.12376C33.2957 5.57083 32.937 5.14077 32.4654 4.84382C32.0041 4.54688 31.471 4.38305 30.8765 4.36257C30.2819 4.34209 29.6668 4.48544 29.0415 4.78239L27.1143 5.6937L25.2178 6.58453L29.8411 16.3428L31.7273 15.4519L29.7898 11.3664L30.1179 11.2128L35.1717 13.8238L37.468 12.7385L32.2296 10.1479ZM27.8319 7.22962L29.5951 6.38998C30.0564 6.17495 30.4767 6.134 30.856 6.26711C31.2353 6.40022 31.512 6.65621 31.6863 7.03507C31.8811 7.45489 31.9118 7.83375 31.7683 8.19213C31.6248 8.55051 31.3173 8.83722 30.856 9.05225L29.0928 9.89189L27.8319 7.22962ZM38.1035 12.6463L35.7663 2.09964L37.8063 1.6491L43.0343 0.492044L43.4341 2.29419L38.206 3.45125L38.7596 5.93945L43.5366 4.88478L43.9262 6.62549L39.1492 7.68016L39.754 10.3936L45.0538 9.22632L45.4536 11.0285L40.1128 12.206L38.1035 12.6463ZM51.3685 8.04878C51.3685 7.72112 51.266 7.45489 51.0815 7.2501C50.897 7.04531 50.6509 6.87124 50.3434 6.73813C50.0359 6.59477 49.7078 6.4719 49.3388 6.35927C48.9698 6.24663 48.611 6.11352 48.2419 5.95993C47.8729 5.80633 47.5448 5.62202 47.2373 5.39675C46.9298 5.17149 46.6838 4.87454 46.4992 4.51616C46.3147 4.15778 46.2122 3.697 46.2122 3.14407C46.2019 2.48874 46.3557 1.92557 46.6735 1.46479C46.9913 1.00402 47.4218 0.645636 47.9754 0.389649C48.529 0.133662 49.1543 0.010788 49.8514 0.000548544C50.5894 -0.00969094 51.2558 0.123422 51.8503 0.399888C52.4449 0.666115 52.937 1.0245 53.3162 1.46479L51.9426 2.85736C51.6248 2.50922 51.2968 2.26347 50.9585 2.09964C50.6202 1.93581 50.2512 1.86413 49.8309 1.86413C49.349 1.86413 48.9698 1.96653 48.693 2.15084C48.4162 2.33515 48.2829 2.60138 48.2829 2.94952C48.2829 3.24646 48.3854 3.48197 48.57 3.66628C48.7545 3.85059 49.0005 4.00418 49.308 4.1373C49.6156 4.27041 49.9436 4.39328 50.3127 4.51616C50.6817 4.63903 51.0405 4.77215 51.4095 4.9155C51.7786 5.05885 52.1066 5.26364 52.4141 5.50939C52.7217 5.75514 52.9677 6.06232 53.1522 6.45142C53.3367 6.83028 53.4393 7.3013 53.4393 7.86447C53.4495 8.86794 53.101 9.65638 52.4039 10.24C51.7068 10.8237 50.733 11.1206 49.5028 11.1309C48.6315 11.1411 47.8831 10.9978 47.2578 10.711C46.6325 10.4243 46.0687 9.98404 45.5561 9.39015L46.9298 7.99758C47.2476 8.4174 47.6269 8.73483 48.0471 8.96009C48.4674 9.18536 48.98 9.298 49.5848 9.28776C50.1281 9.27752 50.5587 9.16488 50.8765 8.94985C51.2148 8.72459 51.3685 8.42764 51.3685 8.04878ZM56.7709 9.45159L61.1174 10.4141L61.4249 12.5439L63.5982 13.0252L61.7017 1.54671L60.0308 1.17809L53.4393 10.7827L55.5715 11.2537L56.7709 9.45159ZM60.2255 4.22945L60.8508 8.56075L57.8062 7.88495L60.2255 4.22945ZM66.0482 14.3768L64.162 13.4655L68.8672 3.73796L70.7534 4.64927L66.858 12.6975L71.3173 14.8478L70.5074 16.5168L66.0482 14.3768ZM77.9703 8.57099L79.1799 9.52326L83.8237 13.1583L82.6858 14.6123L78.4726 11.3152L76.8939 13.3221L80.7483 16.3325L79.6515 17.7353L75.797 14.7249L74.0851 16.9162L78.3598 20.2645L77.2219 21.7185L72.9472 18.3804L71.2968 17.0902L77.9703 8.57099ZM82.7678 28.6609L81.6709 26.8792L90.8765 21.2167L91.9733 22.9984L84.3465 27.6881L86.94 31.8965L85.3511 32.8693L82.7678 28.6609ZM85.6586 33.9444L95.633 29.7667L96.4428 31.6917L86.4787 35.8592L85.6586 33.9444ZM99.8565 44.3477L88.3752 42.4432L88.0164 40.8254L97.673 34.3642L98.1548 36.5657L91.348 40.9687L99.3747 42.1667L99.8565 44.3477ZM99.9487 49.2934L99.9385 49.7235V49.8463L99.8052 55.1913L97.96 55.1401L98.0933 49.7951L95.5407 49.7337L95.4177 54.6179L93.634 54.577L93.757 49.6927L90.979 49.6211L90.8457 55.0378L89.0005 54.9866L89.1543 49.0169L89.1953 47.481L100 47.7575L99.9487 49.2934ZM86.9605 68.0828C87.0733 68.4003 87.0425 68.7279 86.8683 69.0556C86.7042 69.373 86.4582 69.5778 86.1302 69.6802C85.8021 69.7724 85.4844 69.7416 85.1666 69.5778C84.8488 69.414 84.6335 69.1682 84.5208 68.8508C84.408 68.5231 84.4387 68.2057 84.6028 67.8883C84.777 67.5606 85.0231 67.3456 85.3511 67.2534C85.6791 67.1613 85.9969 67.192 86.3147 67.3558C86.6325 67.5197 86.8478 67.7654 86.9605 68.0828ZM76.2071 79.2132L74.5259 80.4624L76.9247 83.6776L75.1819 84.9678C74.6284 85.3773 74.2183 85.8586 73.9416 86.4013C73.6648 86.944 73.552 87.5276 73.6033 88.1215C73.6545 88.7154 73.8801 89.299 74.3004 89.852C74.7207 90.4152 75.2025 90.794 75.756 91.0193C76.3096 91.2445 76.8939 91.2957 77.4987 91.1831C78.1035 91.0807 78.6776 90.8247 79.2312 90.4152L81.4146 88.7973L82.6448 87.8758L76.2071 79.2132ZM78.3906 88.9202C78.124 89.1147 77.8473 89.2376 77.5602 89.2888C77.2629 89.34 76.9862 89.3093 76.7094 89.1967C76.4326 89.084 76.1866 88.8895 75.9815 88.6028C75.7663 88.3161 75.6432 88.0294 75.6227 87.7324C75.592 87.4355 75.6535 87.159 75.7868 86.8928C75.92 86.6265 76.1251 86.4013 76.3813 86.2067L77.9498 85.0394L79.959 87.7529L78.3906 88.9202ZM67.1553 85.1521L68.9493 89.299L68.611 89.4424L63.6494 86.6675L61.3224 87.6812L66.4787 90.4356C66.0892 90.6711 65.7304 90.9271 65.4639 91.2343C65.0743 91.6848 64.8488 92.1866 64.7668 92.7293C64.6848 93.272 64.7668 93.8351 65.0231 94.4188C65.2691 94.982 65.6176 95.4223 66.0687 95.7397C66.5197 96.0571 67.0528 96.2312 67.6371 96.2721C68.2317 96.3131 68.8467 96.1902 69.4823 95.9137L71.4403 95.0639L73.3572 94.2345L69.062 84.3329L67.1553 85.1521ZM68.98 94.2652C68.5085 94.47 68.0882 94.5007 67.7191 94.3471C67.3501 94.2038 67.0835 93.9375 66.9093 93.5484C66.7247 93.1286 66.7145 92.7395 66.8683 92.3914C67.022 92.0432 67.3398 91.7668 67.8011 91.562L69.5951 90.7838L70.774 93.487L68.98 94.2652ZM60.7073 87.7324L62.696 98.3508L60.6356 98.7398L55.3767 99.7228L55.0384 97.9105L60.2973 96.9275L59.8257 94.4188L55.0179 95.3199L54.6899 93.5689L59.4977 92.6678L58.9851 89.9339L53.6545 90.9374L53.3162 89.125L58.8416 88.0908L60.7073 87.7324ZM47.2783 91.8999C47.2681 92.2275 47.3603 92.4938 47.5346 92.7088C47.7089 92.9136 47.9549 93.0979 48.2522 93.2515C48.5495 93.4051 48.8877 93.5382 49.2465 93.6713C49.6053 93.8044 49.9641 93.9375 50.3332 94.1014C50.6919 94.2652 51.02 94.4597 51.3173 94.6953C51.6146 94.9308 51.8503 95.2379 52.0246 95.6066C52.1989 95.9752 52.2809 96.436 52.2706 96.9889C52.2604 97.6442 52.0861 98.1972 51.7581 98.6477C51.43 99.0982 50.9892 99.4464 50.4254 99.6716C49.8719 99.9071 49.2363 100.01 48.5392 99.9993C47.8011 99.9788 47.1348 99.8252 46.5505 99.5385C45.9662 99.2518 45.4844 98.8832 45.1153 98.4327L46.53 97.081C46.8375 97.4394 47.1553 97.6954 47.4833 97.8695C47.8114 98.0436 48.1907 98.1357 48.611 98.146C49.0928 98.1562 49.4721 98.0743 49.7591 97.9002C50.0461 97.7261 50.1896 97.4599 50.1896 97.1118C50.1999 96.8148 50.1076 96.5691 49.9334 96.3848C49.7488 96.2005 49.5131 96.0366 49.2158 95.8933C48.9185 95.7499 48.5905 95.6168 48.2214 95.4837C47.8626 95.3506 47.5038 95.2072 47.1451 95.0434C46.7863 94.8796 46.4582 94.6748 46.1609 94.4188C45.8637 94.1628 45.6279 93.8454 45.4536 93.4563C45.2793 93.0672 45.1973 92.5962 45.2076 92.033C45.2281 91.0295 45.6074 90.2513 46.325 89.6881C47.0425 89.1352 48.0164 88.869 49.2465 88.8997C50.1179 88.9202 50.856 89.084 51.471 89.4014C52.0861 89.7086 52.6397 90.1694 53.1215 90.7735L51.7068 92.1251C51.3993 91.6951 51.0405 91.3674 50.6202 91.1217C50.2101 90.8862 49.6976 90.7531 49.0928 90.7428C48.5495 90.7326 48.1189 90.8247 47.7909 91.0398C47.4526 91.2241 47.2886 91.521 47.2783 91.8999ZM43.1881 88.572L41.9375 90.3332L37.632 89.2274L37.3962 87.0873L35.2332 86.5344L36.7504 98.0743L38.4008 98.4941L45.2998 89.1147L43.1881 88.572ZM40.8611 91.8589L38.3291 95.4325L37.8473 91.091L40.8611 91.8589ZM33.306 85.3568L34.6694 86.0736L29.6463 95.6373L27.7909 94.6645L31.9528 86.7494L27.5653 84.4558L28.4264 82.8072L33.306 85.3568ZM27.6679 82.2338L20.7278 90.5175L19.1184 89.1762L15.0179 85.7459L16.2071 84.3329L20.3075 87.7631L21.9477 85.8074L18.1958 82.6741L19.3439 81.3123L23.0958 84.4455L24.8795 82.3157L20.7176 78.8343L21.9067 77.4212L26.489 81.2508L27.6679 82.2338ZM17.6217 72.0967L8.23168 77.452L7.19631 75.6396L14.9667 71.2059L12.5167 66.9053L14.1363 65.9838L16.5864 70.2741L17.6217 72.0967ZM13.8596 64.8984L3.76217 68.7382L3.01384 66.7824L13.1112 62.9426L13.8596 64.8984ZM11.7376 57.956L1.87596 64.0997L1.46591 61.8777L8.4162 57.7L0.430548 56.246L0.0307535 54.0548L11.4403 56.3279L11.7376 57.956ZM0 50.645L0.0922604 49.1091L0.430548 43.2214L2.27576 43.3238L1.96822 48.6586L4.52076 48.8019L4.79754 43.9279L6.58124 44.0303L6.30446 48.9043L9.08252 49.0681L9.39006 43.6515L11.2353 43.7538L10.9277 49.1705L10.8047 51.2594L0 50.645ZM12.3936 33.3915C12.2706 33.0741 12.2911 32.7464 12.4449 32.4187C12.5987 32.0911 12.8344 31.876 13.1625 31.7737C13.4803 31.661 13.8083 31.6815 14.1363 31.8351C14.4644 31.9887 14.6899 32.2242 14.8129 32.5416C14.9359 32.859 14.9257 33.1765 14.7719 33.5041C14.6181 33.8318 14.3721 34.0571 14.0543 34.1697C13.7263 34.2823 13.4085 34.2516 13.0805 34.1083C12.7524 33.9649 12.5167 33.7089 12.3936 33.3915Z" fill="white"/>
</svg>
