<svg width="21" height="22" viewBox="0 0 21 22" fill="none" xmlns="http://www.w3.org/2000/svg">
<path d="M15.4219 4.125C16.1467 4.125 16.7344 3.50939 16.7344 2.75C16.7344 1.99061 16.1467 1.375 15.4219 1.375C14.697 1.375 14.1094 1.99061 14.1094 2.75C14.1094 3.50939 14.697 4.125 15.4219 4.125Z" stroke="white" stroke-width="2" stroke-linecap="round" stroke-linejoin="round"/>
<path d="M13.207 15.125C12.3702 15.5779 11.4419 15.8142 10.5 15.8142C9.55807 15.8142 8.62983 15.5779 7.79297 15.125" stroke="white" stroke-width="2" stroke-linecap="round" stroke-linejoin="round"/>
<path d="M10.5 6.1875L11.1562 2.0625L14.1258 2.54375" stroke="white" stroke-width="2" stroke-linecap="round" stroke-linejoin="round"/>
<path d="M4.87237 7.72578C6.37354 6.76328 8.34229 6.1875 10.4997 6.1875C12.6571 6.1875 14.6259 6.76328 16.1271 7.72578C16.2992 7.47826 16.5219 7.27401 16.7788 7.12787C17.0357 6.98174 17.3205 6.89738 17.6124 6.88092C17.9043 6.86446 18.1961 6.91633 18.4665 7.03274C18.7369 7.14915 18.9792 7.32719 19.1757 7.55393C19.3722 7.78067 19.5181 8.05041 19.6027 8.34358C19.6873 8.63674 19.7085 8.94597 19.6648 9.2488C19.6211 9.55162 19.5136 9.84045 19.35 10.0943C19.1864 10.3482 18.971 10.5607 18.7192 10.7164V10.7164C18.9255 11.2426 19.0314 11.8061 19.031 12.375C19.031 15.7953 15.2083 18.5625 10.4997 18.5625C5.79112 18.5625 1.96846 15.7953 1.96846 12.375C1.96802 11.8061 2.07391 11.2426 2.28018 10.7164V10.7164C2.02845 10.5607 1.81298 10.3482 1.64942 10.0943C1.48587 9.84045 1.37833 9.55162 1.33463 9.2488C1.29092 8.94597 1.31214 8.63674 1.39674 8.34358C1.48134 8.05041 1.6272 7.78067 1.82374 7.55393C2.02027 7.32719 2.26253 7.14915 2.53294 7.03274C2.80335 6.91633 3.09511 6.86446 3.38703 6.88092C3.67896 6.89738 3.96372 6.98174 4.22064 7.12787C4.47757 7.27401 4.7002 7.47826 4.87237 7.72578V7.72578Z" stroke="white" stroke-width="2" stroke-linecap="round" stroke-linejoin="round"/>
<path d="M7.21875 12.5469C7.85301 12.5469 8.36719 12.0082 8.36719 11.3438C8.36719 10.6793 7.85301 10.1406 7.21875 10.1406C6.58449 10.1406 6.07031 10.6793 6.07031 11.3438C6.07031 12.0082 6.58449 12.5469 7.21875 12.5469Z" fill="white"/>
<path d="M13.7812 12.5469C14.4155 12.5469 14.9297 12.0082 14.9297 11.3438C14.9297 10.6793 14.4155 10.1406 13.7812 10.1406C13.147 10.1406 12.6328 10.6793 12.6328 11.3438C12.6328 12.0082 13.147 12.5469 13.7812 12.5469Z" fill="white"/>
</svg>
