<svg width="215" height="56" viewBox="0 0 215 56" fill="none" xmlns="http://www.w3.org/2000/svg">
<path d="M45.0982 13.1329C44.0419 12.4026 42.4134 12.1144 41.255 12.7985L3.73297 31.104C2.17439 31.8161 1.50003 33.6727 2.41223 35.2173C2.86832 35.9896 3.5105 36.5478 4.1247 36.7059L6.59547 37.5383C7.42372 37.8825 8.39609 37.4124 8.74026 36.5842C9.08444 35.7559 8.61435 34.7836 7.58603 34.4534L5.92952 33.765L42.6792 15.9157C42.8793 15.9017 42.8793 15.9017 43.0794 15.8877C43.2794 15.8737 43.2934 16.0738 43.3074 16.2738L38.7575 48.9605C38.7715 49.1606 38.5854 49.3747 38.3993 49.5887C38.1993 49.6027 37.9992 49.6167 37.7851 49.4306L23.453 39.9784L35.7202 25.6505C36.2784 25.0083 36.1945 23.8079 35.5523 23.2496C34.9101 22.6914 34.1098 22.7474 33.5376 23.1895L14.9284 35.9504C14.1561 36.4065 13.8259 37.4348 14.282 38.2071C14.7381 38.9794 15.7664 39.3096 16.5387 38.8535C16.7388 38.8395 16.7248 38.6395 16.7248 38.6395L24.5919 33.2642L20.8703 37.5454C19.5537 38.8437 19.7076 41.0445 21.006 42.361C21.22 42.5471 21.4201 42.5331 21.4341 42.7332L35.5662 52.1994C36.4084 52.7437 37.2227 52.8878 38.023 52.8318C38.4231 52.8038 39.0233 52.7618 39.4095 52.5338C40.782 52.0357 41.4983 50.7794 41.8005 49.3509L46.3504 16.6642C46.8667 15.4218 46.3686 14.0493 45.0982 13.1329Z" fill="#111111"/>
<path d="M100.115 30.9315C100.152 34.0037 102.631 36.3625 105.656 36.3319C108.655 35.9413 110.77 33.0804 110.379 30.033C110.342 26.9608 107.85 24.422 104.825 24.4526C101.838 25.0232 99.7239 27.8841 100.115 30.9315ZM106.67 30.4731C106.759 31.733 106.125 32.8625 105.24 32.9245C104.354 32.9864 103.569 31.956 103.481 30.6961C103.393 29.4362 104.204 28.2943 105.089 28.2324C105.975 28.1704 106.582 29.2132 106.67 30.4731Z" fill="#111111"/>
<path d="M116.356 23.8265C113.357 24.2171 111.242 27.078 111.633 30.1254C111.67 33.1976 114.15 35.5564 117.187 35.7057C120.186 35.3151 122.301 32.4543 121.909 29.4068C121.873 26.3347 119.381 23.7959 116.356 23.8265ZM116.922 31.926C116.037 31.9879 115.252 30.9576 115.164 29.6976C115.076 28.4377 115.709 27.3082 116.595 27.2463C117.481 27.1844 118.265 28.2147 118.353 29.4746C118.441 30.7346 117.808 31.864 116.922 31.926Z" fill="#111111"/>
<path d="M129.01 16.4299C128.82 16.2623 128.808 16.0823 128.808 16.0823C125.531 12.5132 121.091 10.1107 116.231 9.36527C115.32 9.06724 114.308 9.86153 114.193 10.7739C114.079 11.6862 114.686 12.729 115.585 12.847C115.585 12.847 115.585 12.847 115.762 12.8346C119.723 13.462 123.417 15.3741 126.111 18.2604C128.805 23.679 130.638 29.5195 131.065 35.6391C128.749 38.1524 125.85 39.9829 122.521 40.7582L122.471 40.0383C122.471 40.0383 122.471 40.0383 122.459 39.8583C124.522 38.8097 126.572 37.5811 128.231 35.8373C128.902 35.2478 128.991 33.9755 128.409 33.2927C127.827 32.6099 126.574 32.5166 125.903 33.1062C122.055 36.6309 117.03 38.6101 111.702 38.8018C106.577 39.341 101.325 38.0804 97.024 35.1256C96.2775 34.6352 95.0373 34.7219 94.5687 35.659C94.1001 36.5961 94.1756 37.6761 95.0992 38.1541C96.9717 39.4701 99.1859 40.5813 101.375 41.3326L101.438 42.2325C98.0337 41.928 94.9085 40.5187 92.2645 38.3523C91.8365 32.2327 92.6614 26.2064 94.7517 20.4533C96.841 17.2324 100.246 15.0048 104.081 13.8323C104.942 13.4104 105.41 12.4732 105.17 11.5857C104.917 10.5182 103.994 10.0401 102.943 10.2945C98.2351 11.7089 94.1592 14.5261 91.4241 18.6964L91.4493 19.0564C88.4093 26.5037 88.508 33.0081 88.5942 39.3324C88.6319 39.8724 88.8469 40.4 89.2264 40.7352C93.0342 44.2671 97.9689 46.0925 103.145 46.2732C103.676 46.236 104.018 46.0312 104.347 45.6465C104.676 45.2617 104.828 44.8894 104.791 44.3494L104.665 42.5495C109.347 43.3073 114.308 42.9604 118.839 41.5584L118.964 43.3583C119.002 43.8982 119.205 44.2458 119.584 44.581C119.964 44.9162 120.33 45.0714 120.862 45.0342C125.975 44.315 130.785 41.8082 134.064 37.7807C134.393 37.3959 134.532 36.8436 134.495 36.3036C133.687 29.8488 132.88 23.394 129.01 16.4299Z" fill="#111111"/>
<path d="M123.488 18.9866C123.957 18.0495 123.527 16.9943 122.616 16.6963C118.592 15.169 114.264 14.3864 109.848 14.8761C105.583 14.9935 101.229 16.3831 97.4571 18.4556C96.7735 18.8651 96.4947 19.9698 96.912 20.845C97.5064 21.7077 98.5821 21.8134 99.4428 21.3915C102.696 19.5362 106.366 18.5561 110.087 18.2959C113.807 18.0357 117.756 18.4831 121.235 19.8676C121.425 20.0352 121.779 20.0104 122.134 19.9857C122.665 19.9485 123.171 19.5513 123.488 18.9866Z" fill="#111111"/>
<path fill-rule="evenodd" clip-rule="evenodd" d="M172.572 4.3889C172.855 3.71689 173.492 3.26132 174.22 3.21045L183.832 2.53833C184.447 2.49532 185.045 2.74791 185.444 3.21846L196.234 15.9626L208.935 1.35119C209.636 0.544452 210.859 0.458966 211.666 1.16025C212.472 1.86154 212.558 3.08403 211.857 3.89077L198.764 18.9517L214.393 37.4114C214.865 37.968 214.983 38.7423 214.699 39.4143C214.416 40.0863 213.779 40.5419 213.051 40.5928L203.439 41.2649C202.824 41.3079 202.226 41.0553 201.827 40.5848L191.037 27.8406L178.336 42.452C177.635 43.2588 176.412 43.3443 175.605 42.643C174.799 41.9417 174.713 40.7192 175.414 39.9124L188.507 24.8515L172.878 6.39186C172.406 5.83521 172.288 5.0609 172.572 4.3889ZM194.614 20.0402C194.685 20.143 194.767 20.2403 194.859 20.3302L208.971 36.9977L204.148 37.3349L178.3 6.80555L183.123 6.46829L194.614 20.0402Z" fill="#111111"/>
</svg>
