<svg width="41" height="41" viewBox="0 0 41 41" fill="none" xmlns="http://www.w3.org/2000/svg">
<path d="M21.6692 40.7305C21.0399 40.7745 20.4761 40.356 20.281 39.7561C19.6592 37.8442 18.5846 35.8399 17.0573 33.7435C15.2452 31.2248 12.7537 28.9453 9.58282 26.9045C6.82333 25.1068 4.10791 23.9392 1.43657 23.4018C0.803895 23.2746 0.312499 22.7558 0.267481 22.112C0.223345 21.4809 0.620781 20.9063 1.21558 20.6906C3.73396 19.7772 6.12616 18.4129 8.3922 16.5978C10.9954 14.5014 13.1216 12.0555 14.7709 9.25999C16.2288 6.77053 17.1793 4.34277 17.6225 1.97675C17.7385 1.35692 18.2432 0.872344 18.8723 0.82835C19.5084 0.783873 20.08 1.20313 20.278 1.80935C20.7249 3.17792 21.3709 4.56556 22.2159 5.97223C23.2772 7.70798 24.5931 9.3563 26.1643 10.9172C27.7675 12.441 29.5331 13.7968 31.4609 14.9847C33.9787 16.5174 36.5009 17.5416 39.0278 18.0571C39.6478 18.1836 40.1262 18.6942 40.1703 19.3252C40.2151 19.9658 39.7994 20.5434 39.1935 20.756C37.6525 21.2966 36.0838 22.1044 34.4879 23.1789C32.5611 24.4971 30.7888 26.0307 29.1707 27.7798C27.5503 29.4942 26.2476 31.2734 25.2627 33.1174C24.0397 35.4107 23.2546 37.5611 22.9078 39.569C22.8002 40.1919 22.2994 40.6864 21.6692 40.7305Z" fill="#111111"/>
</svg>
