<svg width="23" height="20" viewBox="0 0 23 20" fill="none" xmlns="http://www.w3.org/2000/svg">
<path d="M22.2186 0.445682C21.7172 0.0445682 20.915 -0.155989 20.3133 0.144847L0.959587 7.96657C0.157359 8.26741 -0.243755 9.16992 0.157359 9.97214C0.357916 10.3733 0.658752 10.6741 0.959587 10.7744L2.16293 11.2758C2.56404 11.4763 3.06544 11.2758 3.26599 10.8747C3.46655 10.4735 3.26599 9.97215 2.7646 9.77159L1.96237 9.37047L20.915 1.7493C21.0153 1.7493 21.0153 1.7493 21.1156 1.7493C21.2159 1.7493 21.2159 1.84958 21.2159 1.94986L17.8064 18.0947C17.8064 18.195 17.7061 18.2953 17.6058 18.3955C17.5055 18.3955 17.4053 18.3955 17.305 18.2953L10.486 13.0808L17.1044 6.36212C17.4053 6.06128 17.4053 5.45961 17.1044 5.15877C16.8036 4.85794 16.4025 4.85794 16.1016 5.0585L6.37463 10.7744C5.97352 10.9749 5.77296 11.4763 5.97351 11.8774C6.17407 12.2786 6.67546 12.4791 7.07658 12.2786C7.17686 12.2786 7.17686 12.1783 7.17686 12.1783L11.2883 9.77159L9.28271 11.7772C8.58076 12.3788 8.58076 13.4819 9.18243 14.1838C9.28271 14.2841 9.38299 14.2841 9.38299 14.3844L16.1016 19.5989C16.5028 19.8997 16.9039 20 17.305 20C17.5055 20 17.8064 20 18.0069 19.8997C18.7089 19.6992 19.11 19.0975 19.3106 18.3955L22.72 2.2507C23.0209 1.64903 22.8203 0.947075 22.2186 0.445682Z" fill="white"/>
</svg>
