<svg width="45" height="41" viewBox="0 0 45 41" fill="none" xmlns="http://www.w3.org/2000/svg">
<path d="M43.0982 1.13291C42.0419 0.402588 40.4134 0.114372 39.255 0.798519L1.73297 19.104C0.174393 19.8161 -0.49997 21.6727 0.412226 23.2173C0.868324 23.9896 1.5105 24.5478 2.1247 24.7059L4.59547 25.5383C5.42372 25.8825 6.39609 25.4124 6.74026 24.5842C7.08444 23.7559 6.61435 22.7836 5.58603 22.4534L3.92952 21.765L40.6792 3.91568C40.8793 3.90169 40.8793 3.90169 41.0794 3.8877C41.2794 3.8737 41.2934 4.07377 41.3074 4.27384L36.7575 36.9605C36.7715 37.1606 36.5854 37.3747 36.3993 37.5887C36.1993 37.6027 35.9992 37.6167 35.7851 37.4306L21.453 27.9784L33.7202 13.6505C34.2784 13.0083 34.1945 11.8079 33.5523 11.2496C32.9101 10.6914 32.1098 10.7474 31.5376 11.1895L12.9284 23.9504C12.1561 24.4065 11.8259 25.4348 12.282 26.2071C12.7381 26.9794 13.7664 27.3096 14.5387 26.8535C14.7388 26.8395 14.7248 26.6395 14.7248 26.6395L22.5919 21.2642L18.8703 25.5454C17.5537 26.8437 17.7076 29.0445 19.006 30.361C19.22 30.5471 19.4201 30.5331 19.4341 30.7332L33.5662 40.1994C34.4084 40.7437 35.2227 40.8878 36.023 40.8318C36.4231 40.8038 37.0233 40.7618 37.4095 40.5338C38.782 40.0357 39.4983 38.7794 39.8005 37.3509L44.3504 4.6642C44.8667 3.42181 44.3686 2.04931 43.0982 1.13291Z" fill="#111111"/>
</svg>
