<svg width="43" height="43" viewBox="0 0 43 43" fill="none" xmlns="http://www.w3.org/2000/svg">
<path fill-rule="evenodd" clip-rule="evenodd" d="M0.282503 3.83369C0.566001 3.16169 1.2032 2.70612 1.93078 2.65524L11.5425 1.98312C12.1575 1.94012 12.7562 2.19271 13.1546 2.66325L23.9446 15.4074L36.6461 0.795983C37.3474 -0.0107548 38.5699 -0.0962401 39.3766 0.605046C40.1833 1.30633 40.2688 2.52883 39.5675 3.33557L26.4753 18.3965L42.1042 36.8562C42.5755 37.4128 42.6938 38.1871 42.4103 38.8591C42.1268 39.5311 41.4896 39.9867 40.7621 40.0376L31.1504 40.7097C30.5353 40.7527 29.9366 40.5001 29.5382 40.0296L18.7483 27.2854L6.04675 41.8968C5.34547 42.7036 4.12297 42.789 3.31623 42.0878C2.5095 41.3865 2.42401 40.164 3.1253 39.3572L16.2176 24.2963L0.588633 5.83665C0.11735 5.28001 -0.000995789 4.50569 0.282503 3.83369ZM22.3248 19.485C22.3957 19.5878 22.4776 19.6851 22.5703 19.775L36.6819 36.4425L31.8588 36.7797L6.01093 6.25035L10.8341 5.91308L22.3248 19.485Z" fill="#111111"/>
</svg>
