<svg width="18" height="18" viewBox="0 0 18 18" fill="none" xmlns="http://www.w3.org/2000/svg">
<path fill-rule="evenodd" clip-rule="evenodd" d="M0.0940626 0.477271C0.242421 0.184506 0.542762 0 0.870972 0H5.20679C5.48424 0 5.74509 0.132183 5.90915 0.355919L10.3527 6.41553L16.5132 0.255101C16.8533 -0.0850335 17.4048 -0.0850335 17.7449 0.2551C18.085 0.595235 18.085 1.1467 17.7449 1.48683L11.395 7.83678L17.8314 16.614C18.0255 16.8787 18.0543 17.23 17.9059 17.5227C17.7576 17.8155 17.4572 18 17.129 18H12.7932C12.5158 18 12.2549 17.8678 12.0909 17.6441L7.64727 11.5845L1.48684 17.7449C1.14671 18.085 0.595239 18.085 0.255105 17.7449C-0.0850294 17.4048 -0.0850294 16.8533 0.255105 16.5132L6.60505 10.1632L0.168612 1.38602C-0.0254758 1.12134 -0.0542954 0.770037 0.0940626 0.477271ZM9.49762 8.1951C9.52624 8.2435 9.55996 8.28973 9.59876 8.33302L15.4103 16.2581H13.2346L2.58972 1.74194H4.76543L9.49762 8.1951Z" fill="white"/>
</svg>
