<svg width="18" height="18" viewBox="0 0 18 18" fill="none" xmlns="http://www.w3.org/2000/svg">
<path fill-rule="evenodd" clip-rule="evenodd" d="M0.856713 0.856713C1.40526 0.308169 2.14924 0 2.925 0H13.05C13.5572 0 14.0437 0.201495 14.4023 0.560158C14.761 0.918823 14.9625 1.40527 14.9625 1.9125V4.05H15.075C15.5822 4.05 16.0687 4.25149 16.4273 4.61016C16.786 4.96882 16.9875 5.45527 16.9875 5.9625V8.1H17.1C17.5971 8.1 18 8.50294 18 9V13.05C18 13.5471 17.5971 13.95 17.1 13.95H16.9875V16.0875C16.9875 16.5947 16.786 17.0812 16.4273 17.4398C16.0687 17.7985 15.5822 18 15.075 18H2.925C2.14924 18 1.40526 17.6918 0.856713 17.1433C0.308169 16.5947 0 15.8508 0 15.075V2.925C0 2.14924 0.308169 1.40526 0.856713 0.856713ZM1.8 5.625V15.075C1.8 15.3734 1.91853 15.6595 2.1295 15.8705C2.34048 16.0815 2.62663 16.2 2.925 16.2H15.075C15.1048 16.2 15.1335 16.1881 15.1546 16.167C15.1756 16.146 15.1875 16.1173 15.1875 16.0875V13.95H13.05C12.2742 13.95 11.5303 13.6418 10.9817 13.0933C10.4332 12.5447 10.125 11.8008 10.125 11.025C10.125 10.2492 10.4332 9.50526 10.9817 8.95671C11.5303 8.40817 12.2742 8.1 13.05 8.1H15.1875V5.9625C15.1875 5.93266 15.1756 5.90405 15.1546 5.88295C15.1335 5.86185 15.1048 5.85 15.075 5.85H2.925C2.53504 5.85 2.15311 5.77213 1.8 5.625ZM13.1625 4.05H2.925C2.62663 4.05 2.34048 3.93147 2.1295 3.72049C1.91853 3.50952 1.8 3.22337 1.8 2.925C1.8 2.62663 1.91853 2.34048 2.1295 2.1295C2.34048 1.91853 2.62663 1.8 2.925 1.8H13.05C13.0798 1.8 13.1085 1.81185 13.1295 1.83295C13.1506 1.85405 13.1625 1.88266 13.1625 1.9125V4.05ZM13.05 9.9C12.7516 9.9 12.4655 10.0185 12.2545 10.2295C12.0435 10.4405 11.925 10.7266 11.925 11.025C11.925 11.3234 12.0435 11.6095 12.2545 11.8205C12.4655 12.0315 12.7516 12.15 13.05 12.15H16.2V9.9H13.05Z" fill="white" fill-opacity="0.8"/>
</svg>
